<svg width="56" height="54" viewBox="0 0 56 54" fill="none" xmlns="http://www.w3.org/2000/svg">
<mask id="mask0_93_2634" style="mask-type:luminance" maskUnits="userSpaceOnUse" x="0" y="-1" width="56" height="55">
<path d="M0.257812 -0.999996H55.2578V54H0.257812V-0.999996Z" fill="white"/>
</mask>
<g mask="url(#mask0_93_2634)">
<path d="M6.19434 42.1693C7.43678 43.9196 9.55492 45.1487 12.0164 45.395C11.9709 45.6937 11.9394 45.9961 11.9394 46.3055C11.9394 50.11 15.4806 53.1943 19.8487 53.1943C23.1014 53.1943 25.8952 51.4845 27.1103 49.0405C27.2352 48.7896 27.4966 48.6641 27.7582 48.6641C28.0199 48.6641 28.2812 48.7896 28.4061 49.0405C29.6212 51.4845 32.4152 53.1943 35.6677 53.1943C40.0358 53.1943 43.577 50.11 43.577 46.3055C43.577 45.9961 43.5455 45.6937 43.5 45.395C44.646 45.2804 45.7176 44.9526 46.661 44.4585" stroke="white" stroke-miterlimit="10" stroke-linecap="round" stroke-linejoin="round"/>
<path d="M9.27975 6.92548C7.88949 7.87111 6.99553 9.34473 6.99553 11.0001C6.99553 11.9455 7.29201 12.8291 7.8013 13.5914C4.61055 13.6764 2.0523 15.9504 2.0523 18.7499C2.0523 20.0776 2.62883 21.2868 3.5735 22.2021C1.88117 23.6539 1.06348 25.5215 1.06348 27.361C1.06348 30.5497 3.55566 33.2202 6.93279 34.0046C5.68799 35.2565 5.01821 36.9224 5.01821 38.5554" stroke="white" stroke-miterlimit="10" stroke-linecap="round" stroke-linejoin="round"/>
<path d="M49.4994 41.9062C50.1351 40.9149 50.4975 39.7723 50.4975 38.5555C50.4975 36.9224 49.8276 35.2566 48.5829 34.0046C51.9598 33.2204 54.4522 30.5497 54.4522 27.3611C54.4522 25.5215 53.6346 23.6538 51.9422 22.2021C52.8868 21.2869 53.4634 20.0776 53.4634 18.7501C53.4634 15.9504 50.9051 13.6764 47.7144 13.5915C48.2236 12.8291 48.5201 11.9456 48.5201 11.0001C48.5201 8.14667 45.8642 5.83345 42.5881 5.83345C42.2812 5.83345 41.8958 5.86514 41.5877 5.90575C41.5922 5.84989 41.5995 5.79467 41.5985 5.73752C41.5415 2.54044 38.4491 -0.148655 34.7784 -0.193665C31.954 -0.228362 29.5109 1.21098 28.3982 3.29765C28.2698 3.53849 28.0138 3.65891 27.7579 3.65891C27.502 3.65891 27.246 3.53849 27.1176 3.29765C26.0051 1.21098 23.5619 -0.228362 20.7374 -0.193665C17.0665 -0.148655 13.9743 2.54044 13.9173 5.73752C13.9163 5.79457 13.9236 5.84989 13.928 5.90575C13.6201 5.86514 13.2346 5.83345 12.9277 5.83345" stroke="white" stroke-miterlimit="10" stroke-linecap="round" stroke-linejoin="round"/>
<path d="M7.80176 13.5914C7.80176 13.5914 9.34584 13.5904 10.4618 14.5774" stroke="white" stroke-miterlimit="10" stroke-linecap="round" stroke-linejoin="round"/>
<path d="M12.0156 45.395C12.0156 45.395 12.2236 43.8066 13.3686 42.7021" stroke="white" stroke-miterlimit="10" stroke-linecap="round" stroke-linejoin="round"/>
<path d="M51.9416 22.202C51.9416 22.202 50.9093 23.2659 49.4512 23.3818" stroke="white" stroke-miterlimit="10" stroke-linecap="round" stroke-linejoin="round"/>
<path d="M41.5982 5.73749C41.5982 5.73749 41.5999 7.62253 40.5215 8.91138" stroke="white" stroke-miterlimit="10" stroke-linecap="round" stroke-linejoin="round"/>
<path d="M27.7578 12.9534V48.6641" stroke="white" stroke-miterlimit="10" stroke-linecap="round" stroke-linejoin="round"/>
<path d="M27.7578 3.65894V9.23413" stroke="white" stroke-miterlimit="10" stroke-linecap="round" stroke-linejoin="round"/>
<path d="M35.1809 41.9913C36.0719 41.9913 36.7943 42.7125 36.7943 43.6023C36.7943 44.492 36.0719 45.2134 35.1809 45.2134C34.2898 45.2134 33.5674 44.492 33.5674 43.6023C33.5674 42.7125 34.2898 41.9913 35.1809 41.9913Z" stroke="white" stroke-miterlimit="10" stroke-linecap="round" stroke-linejoin="round"/>
<path d="M35.1812 41.9912C35.1812 36.2 30.382 37.1083 27.7578 37.1083" stroke="white" stroke-miterlimit="10" stroke-linejoin="round"/>
<path d="M35.1809 12.3491C36.0719 12.3491 36.7943 11.6278 36.7943 10.738C36.7943 9.84823 36.0719 9.127 35.1809 9.127C34.2898 9.127 33.5674 9.84823 33.5674 10.738C33.5674 11.6278 34.2898 12.3491 35.1809 12.3491Z" stroke="white" stroke-miterlimit="10" stroke-linecap="round" stroke-linejoin="round"/>
<path d="M35.1812 12.3491C35.1812 18.1403 30.382 17.2319 27.7578 17.2319" stroke="white" stroke-miterlimit="10" stroke-linejoin="round"/>
<path d="M42.1213 36.659C43.0124 36.659 43.7348 37.3802 43.7348 38.27C43.7348 39.1598 43.0124 39.8811 42.1213 39.8811C41.2302 39.8811 40.5078 39.1598 40.5078 38.27C40.5078 37.3802 41.2302 36.659 42.1213 36.659Z" stroke="white" stroke-miterlimit="10" stroke-linecap="round" stroke-linejoin="round"/>
<path d="M42.1211 36.6589C42.1211 30.4126 36.2233 30.4126 27.7578 30.4126" stroke="white" stroke-miterlimit="10" stroke-linejoin="round"/>
<path d="M42.1213 17.5215C43.0124 17.5215 43.7348 16.8001 43.7348 15.9104C43.7348 15.0206 43.0124 14.2994 42.1213 14.2994C41.2302 14.2994 40.5078 15.0206 40.5078 15.9104C40.5078 16.8001 41.2302 17.5215 42.1213 17.5215Z" stroke="white" stroke-miterlimit="10" stroke-linecap="round" stroke-linejoin="round"/>
<path d="M42.1211 17.5215C42.1211 23.7678 36.2233 23.7678 27.7578 23.7678" stroke="white" stroke-miterlimit="10" stroke-linejoin="round"/>
<path d="M10.1621 26.6082C10.1621 26.6082 10.4227 21.9673 15.114 20.8262" stroke="white" stroke-miterlimit="10" stroke-linecap="round" stroke-linejoin="round"/>
<path d="M18.2529 12.9536C18.2529 12.9536 21.4658 11.8277 21.7579 8.73161" stroke="white" stroke-miterlimit="10" stroke-linecap="round" stroke-linejoin="round"/>
<path d="M18.2534 37.1693C18.2534 37.1693 17.8612 41.3573 21.5317 43.1038" stroke="white" stroke-miterlimit="10" stroke-linecap="round" stroke-linejoin="round"/>
<path d="M21.5242 26.1613C21.5242 26.1613 21.7518 28.5914 19.6221 29.6047" stroke="white" stroke-miterlimit="10" stroke-linecap="round" stroke-linejoin="round"/>
</g>
</svg>
