<svg width="62" height="62" viewBox="0 0 62 62" fill="none" xmlns="http://www.w3.org/2000/svg">
<path d="M19.3224 22.83C17.3311 21.0719 14.7659 20.1016 12.1094 20.1016C6.09029 20.1016 1.21094 24.9809 1.21094 31C1.21094 37.0191 6.09041 41.8984 12.1094 41.8984C14.7658 41.8984 17.3308 40.9282 19.3223 39.1701" stroke="white" stroke-miterlimit="22.9256" stroke-linecap="round" stroke-linejoin="round"/>
<path d="M13.6758 27.2181L13.1221 26.9887C12.082 26.558 10.8788 27.0563 10.4479 28.0964C10.0172 29.1363 10.5156 30.3396 11.5555 30.7705L12.1092 30.9998L12.663 31.2292C13.7029 31.6599 14.2012 32.8632 13.7705 33.9033C13.3398 34.9434 12.1365 35.4417 11.0964 35.0109L10.5426 34.7816" stroke="white" stroke-miterlimit="22.9256" stroke-linecap="round" stroke-linejoin="round"/>
<path d="M12.1094 26.4942V25.3481" stroke="white" stroke-miterlimit="22.9256" stroke-linecap="round" stroke-linejoin="round"/>
<path d="M12.1094 36.6516V35.4028" stroke="white" stroke-miterlimit="22.9256" stroke-linecap="round" stroke-linejoin="round"/>
<path d="M9.91282 19.9389C14.2442 10.4484 23.7164 4.35938 34.1486 4.35938C39.544 4.35938 44.5641 5.96459 48.7592 8.722M56.4258 16.3885C59.1833 20.5841 60.789 25.6041 60.789 30.9999C60.789 45.7131 48.8616 57.6404 34.1484 57.6404C23.7146 57.6404 14.2411 51.5494 9.91064 42.0566" stroke="white" stroke-miterlimit="22.9256" stroke-linecap="round" stroke-linejoin="round"/>
<path d="M20.1883 42.2588C19.2377 38.7331 18.7451 34.8902 18.7451 31C18.7451 27.1099 19.2377 23.2669 20.1883 19.7412" stroke="white" stroke-miterlimit="22.9256" stroke-linecap="round" stroke-linejoin="round"/>
<path d="M19.2159 34.4658C25.2206 33.4237 22.869 37.598 26.1332 38.3799C28.3769 38.9173 33.9299 34.6602 35.7973 37.8947C37.517 40.8732 31.3805 44.2642 33.5354 47.9966C35.6034 51.5785 43.469 46.9963 47.1672 53.854" stroke="white" stroke-miterlimit="22.9256" stroke-linecap="round" stroke-linejoin="round"/>
<path d="M28.7833 5.26123C29.7964 9.15801 29.6417 10.7679 28.6659 14.4096C28.094 16.5441 27.8037 19.8847 30.2171 21.748C32.2802 23.3407 34.3161 21.851 35.0043 19.2827C35.8013 16.3082 41.1138 13.8096 43.6608 20.4954C44.9886 23.981 41.1199 26.5287 43.7013 28.5787C45.7369 30.1952 48.4513 26.937 51.5594 26.7813C54.2266 26.6476 55.9352 30.0946 60.2179 27.8612" stroke="white" stroke-miterlimit="22.9256" stroke-linecap="round" stroke-linejoin="round"/>
<path d="M52.9856 12.1616L52.9871 12.1631" stroke="white" stroke-miterlimit="2.6131" stroke-linecap="round" stroke-linejoin="round"/>
</svg>
