<svg id="Group_56214" data-name="Group 56214" xmlns="http://www.w3.org/2000/svg" xmlns:xlink="http://www.w3.org/1999/xlink" width="1223.879" height="1037.691" viewBox="0 0 1223.879 1037.691">
  <defs>
    <linearGradient id="linear-gradient" x1="1.058" y1="-0.696" x2="0.284" y2="1.143" gradientUnits="objectBoundingBox">
      <stop offset="0" stop-color="#ff00d5"/>
      <stop offset="0.419" stop-color="#00ffe5"/>
      <stop offset="0.738" stop-color="#00b8f1"/>
      <stop offset="1" stop-color="#0fc4d8"/>
    </linearGradient>
  </defs>
  <g id="Group_94" data-name="Group 94" transform="translate(0 0)">
    <g id="Group_93" data-name="Group 93">
      <path id="Path_137" data-name="Path 137" d="M-4902.858,3588.406s-265.3-153.057-89.8-420.4c0,0,177.552-259.176,461.217-155.1,0,0-191.773-44.558-346.343,79.817s-185.965,310.342-37.437,469.741l26.571,25.938Z" transform="translate(5052.667 -2550.714)" fill="url(#linear-gradient)"/>
      <path id="Path_138" data-name="Path 138" d="M-4707.761,3276.607s-167.969,50.233-320.245-332.8c0,0,331.242-25.117,483.508,232.333,0,0,202.5,9.419,200.93,207.218,0,0-1.562,26.688,23.557,62.794s-6.286,141.278-119.31,147.56c0,0-40.816,1.574-64.362-7.845s-62.792,17.268-97.327-9.422-31.4-26.691-34.543-56.514c0,0,34.543,61.226,131.87,36.107,0,0,83.2,21.978,127.154-10.988s45.529-87.91,12.56-119.307c0,0,12.56-216.637-180.528-216.637,0,0-163.255-243.321-430.129-232.335,0,0,45.521,183.673,257.451,290.421Z" transform="translate(5267.135 -2943.135)" fill="url(#linear-gradient)"/>
    </g>
    <path id="Path_139" data-name="Path 139" d="M28.511,141.608-5.833,80.949H-20.551v60.659H-51.773V-14.054H6.656q18.064,0,30.776,6.356T56.5,9.474a46.865,46.865,0,0,1,6.356,24.2,46.348,46.348,0,0,1-8.92,27.765Q45.014,73.813,27.4,78.5l37.243,63.112ZM-20.551,57.533H5.541q12.712,0,18.956-6.133t6.244-17.06q0-10.7-6.244-16.614T5.541,11.815H-20.551Zm251.78,54.415h-62l-10.259,29.661H126.19L182.166-14.277h36.351l55.976,155.885H241.488ZM222.754,86.97,200.23,21.851,177.706,86.97Zm205.617-25.2A34.984,34.984,0,0,1,450,74.928a38.429,38.429,0,0,1,8.474,24.531,39.533,39.533,0,0,1-6.133,21.967q-6.133,9.478-17.729,14.83t-27.43,5.352H340.059V-14.054h64.227q15.834,0,27.319,5.129T449,5.348a37.371,37.371,0,0,1,5.91,20.74q0,13.6-7.248,22.747A38.777,38.777,0,0,1,428.371,61.77Zm-57.091-11.6h28.546q11.151,0,17.172-5.018t6.021-14.384q0-9.366-6.021-14.5t-17.172-5.129H371.28Zm31.445,66.011q11.374,0,17.729-5.352t6.356-15.165q0-10.036-6.69-15.722t-18.064-5.687H371.28v41.926ZM559.279-14.054V141.608H528.058V-14.054Zm181.309,0v25.2h-41.48V141.608H667.886V11.146h-41.48v-25.2ZM880.193,143.169a80.651,80.651,0,0,1-40.142-10.259,76.588,76.588,0,0,1-28.992-28.434q-10.7-18.175-10.7-41.146,0-22.747,10.7-40.923A76.588,76.588,0,0,1,840.051-6.025a83.887,83.887,0,0,1,80.4,0,76.006,76.006,0,0,1,28.769,28.434q10.593,18.175,10.593,40.923,0,22.97-10.593,41.146a75.775,75.775,0,0,1-28.88,28.434A80.651,80.651,0,0,1,880.193,143.169Zm0-27.876q14.05,0,24.754-6.356a43.57,43.57,0,0,0,16.726-18.175q6.021-11.82,6.021-27.43t-6.021-27.319A42.978,42.978,0,0,0,904.948,18.06q-10.7-6.244-24.754-6.244a48.83,48.83,0,0,0-24.866,6.244A42.761,42.761,0,0,0,838.49,36.012q-6.021,11.708-6.021,27.319t6.021,27.43a43.343,43.343,0,0,0,16.837,18.175A48.158,48.158,0,0,0,880.193,115.293Z" transform="translate(264.07 787.924)" fill="url(#linear-gradient)"/>
  </g>
</svg>
