<?xml version="1.0" encoding="UTF-8" standalone="no"?>
<!DOCTYPE svg PUBLIC "-//W3C//DTD SVG 1.1//EN" "http://www.w3.org/Graphics/SVG/1.1/DTD/svg11.dtd">
<svg width="66" height="66" viewBox="0 0 66 66" fill="none" xmlns="http://www.w3.org/2000/svg" xmlns:xlink="http://www.w3.org/1999/xlink">
<path fill="#fefefe" d="
  M 14.00 21.96
  C 16.43 10.35 24.43 -0.33 37.75 3.26
  C 46.81 5.70 49.87 13.90 52.03 22.14
  Q 52.15 22.63 52.66 22.58
  Q 59.11 21.86 59.49 28.01
  Q 59.88 34.25 56.56 37.66
  Q 56.10 38.13 56.25 38.78
  Q 58.64 49.01 49.45 55.56
  C 45.14 58.64 36.07 64.69 30.52 62.95
  C 25.45 61.37 20.30 58.31 16.07 55.21
  Q 7.55 48.96 9.67 38.85
  Q 9.80 38.21 9.38 37.72
  Q 6.05 33.86 6.52 27.78
  Q 6.96 21.96 13.16 22.58
  Q 13.86 22.65 14.00 21.96
  Z
  M 39.79 7.13
  C 34.68 4.12 28.40 5.03 24.01 8.83
  Q 18.69 13.43 17.35 20.39
  Q 15.77 28.60 13.00 37.45
  C 11.29 42.90 11.79 47.69 16.04 51.48
  Q 21.28 56.14 30.68 60.10
  C 32.57 60.89 34.36 60.64 36.18 59.81
  Q 43.12 56.64 48.28 52.90
  C 53.12 49.40 55.21 44.17 53.27 38.45
  Q 50.60 30.55 49.26 23.04
  C 48.12 16.61 45.52 10.51 39.79 7.13
  Z
  M 9.56 26.77
  C 9.29 28.52 9.31 32.72 10.43 34.20
  Q 11.05 35.02 11.28 34.01
  L 12.96 26.69
  Q 13.33 25.10 11.70 25.23
  L 11.19 25.27
  Q 9.79 25.38 9.56 26.77
  Z
  M 56.03 33.25
  Q 56.78 30.14 56.52 27.16
  Q 56.36 25.30 54.50 25.25
  L 54.18 25.24
  Q 52.84 25.19 53.04 26.53
  Q 53.57 30.01 54.56 33.29
  Q 55.38 35.98 56.03 33.25
  Z"
/>
<path fill="#fefefe" d="
  M 42.22 36.68
  Q 41.45 36.85 41.84 37.53
  Q 44.01 41.31 44.51 45.56
  C 46.55 62.71 10.98 60.48 24.49 37.32
  Q 24.77 36.84 24.23 36.70
  C 22.77 36.33 21.29 36.03 20.05 35.10
  C 16.15 32.18 16.12 26.45 20.15 23.82
  C 23.94 21.33 27.67 22.70 31.33 24.57
  C 36.08 27.01 40.48 19.05 46.41 24.13
  Q 48.07 25.54 48.52 27.67
  Q 50.07 34.94 42.22 36.68
  Z
  M 27.58 33.95
  A 1.18 1.17 21.1 0 1 28.39 35.77
  C 25.16 40.54 20.57 51.33 29.69 53.59
  Q 35.07 54.93 38.94 52.41
  C 44.57 48.73 40.29 39.53 37.50 35.50
  A 0.97 0.97 0.0 0 1 38.21 33.98
  C 40.09 33.80 42.55 34.17 44.14 33.05
  Q 46.73 31.22 45.91 28.40
  C 44.45 23.37 39.62 25.62 36.48 27.16
  C 33.42 28.67 30.22 27.18 27.37 25.90
  C 24.22 24.49 19.89 25.60 19.91 29.69
  C 19.94 34.06 24.80 33.56 27.58 33.95
  Z"
/>
<path fill="#fefefe" d="
  M 29.75 29.78
  A 0.11 0.11 0.0 0 1 29.82 29.91
  L 29.80 29.96
  A 2.86 2.70 18.2 0 1 26.24 31.63
  L 26.09 31.58
  A 2.86 2.70 18.2 0 1 24.21 28.13
  L 24.23 28.08
  A 0.11 0.11 0.0 0 1 24.37 28.01
  L 29.75 29.78
  Z"
/>
<path fill="#fefefe" d="
  M 41.67 28.14
  A 0.11 0.11 0.0 0 1 41.81 28.21
  L 41.82 28.26
  A 2.84 2.68 -17.3 0 1 39.91 31.66
  L 39.78 31.71
  A 2.84 2.68 -17.3 0 1 36.27 29.99
  L 36.25 29.94
  A 0.11 0.11 0.0 0 1 36.32 29.81
  L 41.67 28.14
  Z"
/>
<ellipse fill="#fefefe" cx="0.00" cy="0.00" transform="translate(30.51,39.74) rotate(50.0)" rx="1.70" ry="1.36"/>
<ellipse fill="#fefefe" cx="0.00" cy="0.00" transform="translate(35.48,39.78) rotate(-42.8)" rx="1.63" ry="1.39"/>
<rect fill="#fefefe" x="-5.36" y="-1.33" transform="translate(32.99,47.55) rotate(-0.2)" width="10.72" height="2.66" rx="1.28"/>
</svg>
