<?xml version="1.0" encoding="UTF-8" standalone="no"?>
<!DOCTYPE svg PUBLIC "-//W3C//DTD SVG 1.1//EN" "http://www.w3.org/Graphics/SVG/1.1/DTD/svg11.dtd">
<svg width="57" height="68" viewBox="0 0 57 68" fill="none" xmlns="http://www.w3.org/2000/svg">
<path fill="#f8f9f9" fill-opacity="0.996" d="
  M 19.94 9.59
  Q 18.92 12.48 19.49 15.16
  Q 20.65 20.63 25.56 22.48
  Q 30.11 24.19 34.03 21.67
  Q 38.62 18.72 38.68 13.58
  Q 38.71 10.93 37.49 8.60
  Q 36.41 6.53 34.50 5.27
  Q 30.73 2.78 26.21 3.89
  Q 25.74 4.00 25.36 4.28
  Q 24.53 4.90 23.52 4.86
  Q 22.71 4.83 23.38 4.37
  Q 27.42 1.55 32.74 3.29
  C 34.11 3.74 34.36 4.79 35.77 5.15
  Q 36.24 5.27 36.55 5.64
  Q 40.92 10.88 39.05 17.22
  C 38.59 18.81 37.38 19.20 36.83 20.70
  Q 36.63 21.23 36.10 21.45
  C 34.69 22.02 34.05 23.18 32.48 23.59
  Q 24.45 25.67 19.91 18.84
  Q 18.75 17.10 18.46 14.87
  Q 18.16 12.48 18.76 10.20
  Q 19.19 8.54 20.49 7.44
  Q 20.96 7.05 20.80 7.64
  C 20.61 8.35 20.19 8.88 19.94 9.59
  Z"
/>
<path fill="#f8f9f9" fill-opacity="0.996" d="
  M 29.02 19.11
  Q 29.86 19.58 29.53 20.49
  Q 29.31 21.06 28.89 20.61
  Q 28.36 20.04 28.58 19.27
  Q 28.68 18.90 28.32 18.80
  Q 26.00 18.15 25.59 15.73
  Q 25.58 15.67 25.62 15.62
  L 25.84 15.41
  Q 26.08 15.16 26.23 15.48
  L 26.93 16.94
  A 1.05 1.04 -8.5 0 0 27.73 17.53
  Q 31.73 18.10 31.34 15.08
  A 1.33 1.32 14.1 0 0 30.78 14.15
  Q 30.04 13.62 29.10 13.69
  Q 26.15 13.88 25.58 11.03
  C 25.32 9.74 26.64 8.83 27.77 8.64
  Q 28.88 8.46 28.51 7.40
  Q 28.36 6.96 28.55 6.54
  Q 28.96 5.60 29.19 6.60
  Q 29.58 8.33 31.32 8.99
  A 1.35 1.31 -88.5 0 1 32.12 9.86
  Q 32.19 10.10 32.18 10.35
  Q 32.15 11.51 31.47 10.57
  Q 29.54 7.88 26.66 10.27
  Q 26.32 10.56 26.47 10.98
  Q 26.79 11.92 27.54 12.54
  A 1.18 1.15 -29.2 0 0 28.46 12.79
  C 30.81 12.39 33.17 14.05 32.07 16.60
  Q 31.34 18.31 29.09 18.74
  Q 28.54 18.84 29.02 19.11
  Z"
/>
<path fill="#f8f9f9" fill-opacity="0.996" d="
  M 13.64 8.20
  Q 13.63 7.47 14.12 6.93
  Q 14.73 6.24 14.79 7.16
  Q 14.90 8.86 14.04 8.69
  A 0.50 0.50 0.0 0 1 13.64 8.20
  Z"
/>
<path fill="#f8f9f9" fill-opacity="0.996" d="
  M 14.50 12.64
  Q 13.88 12.68 13.68 12.14
  Q 13.52 11.72 13.87 11.40
  A 0.46 0.46 0.0 0 1 14.58 11.50
  Q 14.87 11.98 14.68 12.50
  A 0.21 0.20 6.2 0 1 14.50 12.64
  Z"
/>
<ellipse fill="#f8f9f9" fill-opacity="0.996" cx="0.00" cy="0.00" transform="translate(45.99,11.79) rotate(1.0)" rx="0.71" ry="0.53"/>
<path fill="#f8f9f9" fill-opacity="0.996" d="
  M 47.57 13.11
  Q 48.31 13.12 48.63 13.69
  A 0.39 0.39 0.0 0 1 48.50 14.22
  Q 47.98 14.57 47.50 14.18
  Q 47.06 13.82 47.28 13.30
  A 0.32 0.31 11.2 0 1 47.57 13.11
  Z"
/>
<path fill="#f8f9f9" fill-opacity="0.996" d="
  M 12.58 14.47
  A 0.28 0.26 82.4 0 1 12.43 14.68
  Q 12.03 14.89 11.67 14.67
  Q 11.08 14.30 11.57 13.80
  Q 11.78 13.59 12.05 13.46
  Q 12.81 13.11 12.67 13.94
  L 12.58 14.47
  Z"
/>
<ellipse fill="#f8f9f9" fill-opacity="0.996" cx="0.00" cy="0.00" transform="translate(16.11,14.07) rotate(121.9)" rx="0.80" ry="0.58"/>
<path fill="#f8f9f9" fill-opacity="0.996" d="
  M 44.36 14.38
  Q 43.83 14.38 43.42 14.14
  A 0.49 0.48 -48.0 0 1 43.38 13.33
  Q 43.68 13.10 44.05 13.18
  Q 44.48 13.28 44.57 13.71
  L 44.64 14.03
  A 0.29 0.29 0.0 0 1 44.36 14.38
  Z"
/>
<path fill="#f8f9f9" fill-opacity="0.996" d="
  M 45.76 15.35
  Q 46.37 15.44 46.39 16.11
  A 0.36 0.35 -74.1 0 1 45.84 16.42
  Q 45.51 16.20 45.37 15.82
  A 0.36 0.35 -5.4 0 1 45.76 15.35
  Z"
/>
<path fill="#f8f9f9" fill-opacity="0.996" d="
  M 26.25 58.63
  L 26.25 32.24
  Q 26.25 31.73 25.74 31.74
  L 13.98 31.79
  Q 13.50 31.80 13.50 32.27
  L 13.49 51.66
  Q 13.49 51.89 13.27 51.86
  L 13.01 51.82
  A 0.56 0.55 3.5 0 1 12.52 51.27
  L 12.49 32.53
  A 2.49 2.45 -67.8 0 0 11.77 30.78
  L 2.95 21.90
  Q 2.53 21.47 2.95 21.05
  L 4.77 19.23
  A 0.78 0.76 -45.0 0 1 5.86 19.22
  Q 10.22 23.53 14.64 27.97
  C 15.59 28.93 16.14 30.75 17.88 30.75
  Q 28.62 30.75 39.65 30.78
  Q 40.66 30.78 41.37 30.06
  L 52.10 19.20
  A 0.77 0.76 44.7 0 1 53.19 19.20
  L 54.92 20.91
  Q 55.47 21.45 54.92 22.00
  L 45.93 30.98
  Q 45.49 31.42 45.49 32.04
  L 45.49 36.68
  Q 45.49 36.94 45.23 36.93
  L 44.83 36.92
  Q 44.50 36.91 44.50 36.58
  L 44.51 32.51
  A 0.75 0.75 0.0 0 0 43.76 31.76
  L 32.25 31.74
  Q 31.75 31.74 31.75 32.25
  L 31.74 58.75
  Q 31.74 59.26 32.25 59.26
  L 43.99 59.27
  Q 44.49 59.27 44.49 58.76
  L 44.52 40.67
  Q 44.52 40.44 44.75 40.44
  L 45.03 40.44
  A 0.45 0.45 0.0 0 1 45.49 40.89
  L 45.50 59.29
  A 0.80 0.79 -90.0 0 1 44.71 60.09
  L 13.52 60.11
  A 0.85 0.85 0.0 0 1 12.69 59.43
  Q 12.30 57.50 12.58 55.55
  Q 12.72 54.63 13.14 55.45
  Q 13.77 56.70 13.44 58.26
  A 0.84 0.83 5.9 0 0 14.26 59.26
  L 25.62 59.26
  Q 26.25 59.26 26.25 58.63
  Z
  M 15.12 30.82
  A 0.33 0.33 0.0 0 0 15.35 30.25
  L 5.31 20.27
  A 0.33 0.33 0.0 0 0 4.88 20.24
  L 3.77 21.08
  A 0.33 0.33 0.0 0 0 3.74 21.58
  L 12.94 30.74
  A 0.33 0.33 0.0 0 0 13.18 30.84
  L 15.12 30.82
  Z
  M 54.34 21.42
  A 0.32 0.32 0.0 0 0 54.26 20.91
  L 52.99 20.30
  A 0.32 0.32 0.0 0 0 52.63 20.36
  L 42.57 30.40
  A 0.32 0.32 0.0 0 0 42.84 30.95
  L 45.19 30.58
  A 0.32 0.32 0.0 0 0 45.36 30.49
  L 54.34 21.42
  Z
  M 30.76 32.00
  A 0.26 0.26 0.0 0 0 30.50 31.74
  L 27.50 31.74
  A 0.26 0.26 0.0 0 0 27.24 32.00
  L 27.24 59.00
  A 0.26 0.26 0.0 0 0 27.50 59.26
  L 30.50 59.26
  A 0.26 0.26 0.0 0 0 30.76 59.00
  L 30.76 32.00
  Z"
/>
<path fill="#f8f9f9" fill-opacity="0.996" d="
  M 17.06 26.88
  L 13.40 22.36
  Q 13.32 22.26 13.41 22.18
  L 13.64 21.96
  Q 13.75 21.86 13.86 21.97
  L 18.30 26.33
  A 0.32 0.32 0.0 0 1 18.24 26.83
  L 17.89 27.03
  A 0.65 0.65 0.0 0 1 17.06 26.88
  Z"
/>
<path fill="#f8f9f9" fill-opacity="0.996" d="
  M 44.09 22.13
  A 0.36 0.36 0.0 0 1 44.58 22.16
  L 44.76 22.35
  A 0.07 0.06 -45.0 0 1 44.75 22.44
  Q 43.04 23.93 41.71 26.03
  Q 41.13 26.94 40.13 26.94
  Q 39.34 26.93 39.85 26.33
  Q 41.77 24.01 44.09 22.13
  Z"
/>
<path fill="#f8f9f9" fill-opacity="0.996" d="
  M 37.93 24.28
  L 35.21 26.95
  Q 35.11 27.05 34.99 26.97
  L 34.77 26.82
  Q 34.47 26.61 34.73 26.35
  L 37.36 23.74
  Q 37.61 23.49 37.81 23.78
  L 37.96 23.99
  Q 38.06 24.15 37.93 24.28
  Z"
/>
<path fill="#f8f9f9" fill-opacity="0.996" d="
  M 20.41 24.62
  Q 19.57 23.73 20.72 24.16
  Q 22.31 24.76 23.05 26.34
  Q 23.62 27.54 22.59 26.69
  Q 21.44 25.71 20.41 24.62
  Z"
/>
</svg>
