<svg width="55" height="65" viewBox="0 0 55 65" fill="none" xmlns="http://www.w3.org/2000/svg">
<path d="M4.97879 35.2822V24.5685C4.97879 22.8893 3.61754 21.5281 1.93832 21.5281C1.3128 21.5281 0.805664 22.0352 0.805664 22.6607V37.2468C0.805664 38.0141 1.06853 38.7582 1.55042 39.3553L10.3365 50.3885C10.748 50.9053 10.9722 51.5465 10.9722 52.2072V56.1943" stroke="#EA5584" stroke-width="1.5" stroke-miterlimit="10" stroke-linecap="round" stroke-linejoin="round"/>
<path d="M11.7042 43.4766L5.5543 36.7842C5.16973 36.3653 4.97852 35.8357 4.97852 35.3072C4.97852 35.2986 4.97852 35.2911 4.97852 35.2825C4.98496 34.726 5.20303 34.1717 5.62842 33.7517C6.48027 32.9106 7.8499 32.9127 8.70068 33.7549L13.6894 38.7017" stroke="#EA5584" stroke-width="1.5" stroke-miterlimit="10" stroke-linecap="round" stroke-linejoin="round"/>
<path d="M16.3594 41.3496L17.4594 42.4399C18.8107 43.7795 19.5702 45.6024 19.5702 47.5038V56.1942" stroke="#EA5584" stroke-width="1.5" stroke-miterlimit="10" stroke-linecap="round" stroke-linejoin="round"/>
<path d="M44.0283 56.1944V52.2069C44.0283 51.5462 44.2528 50.9049 44.6643 50.3882L47.7978 46.4534" stroke="#EA5584" stroke-width="1.5" stroke-miterlimit="10" stroke-linecap="round" stroke-linejoin="round"/>
<path d="M50.0215 35.2826V24.5684C50.0215 22.8894 51.3825 21.5283 53.0626 21.5283C53.3752 21.5283 53.6577 21.6551 53.8629 21.8603C54.0681 22.0644 54.1948 22.348 54.1948 22.6605V37.2463C54.1948 38.0144 53.9316 38.7577 53.4504 39.355L50.1429 43.509" stroke="#EA5584" stroke-width="1.5" stroke-miterlimit="10" stroke-linecap="round" stroke-linejoin="round"/>
<path d="M35.4307 56.1942V47.5042C35.4307 45.6024 36.1904 43.7793 37.5408 42.4402L46.2996 33.7553C47.1496 32.9123 48.5199 32.9108 49.3719 33.7518C50.2087 34.5779 50.2413 35.9183 49.4457 36.7841L43.2957 43.4763" stroke="#EA5584" stroke-width="1.5" stroke-miterlimit="10" stroke-linecap="round" stroke-linejoin="round"/>
<path d="M28.1064 4.7749C36.2242 5.04475 42.9738 10.7169 44.875 18.3111" stroke="#EA5584" stroke-width="1.5" stroke-miterlimit="10" stroke-linecap="round" stroke-linejoin="round"/>
<path d="M28.9897 19.4361C28.8867 19.327 28.1003 18.5522 26.8741 18.9215C25.6646 19.2859 25.2903 20.7406 26.1414 21.7212C26.5825 22.2294 27.3235 22.3957 28.2805 22.7339C30.4225 23.4911 29.6307 26.512 27.4519 26.5265C26.6015 26.5321 26.204 26.4781 25.457 25.9896" stroke="#EA5584" stroke-width="1.5" stroke-miterlimit="10" stroke-linecap="round" stroke-linejoin="round"/>
<path d="M27.5 26.6562V27.9075" stroke="#EA5584" stroke-width="1.5" stroke-miterlimit="10" stroke-linecap="round" stroke-linejoin="round"/>
<path d="M27.5 17.4429V18.6941" stroke="#EA5584" stroke-width="1.5" stroke-miterlimit="10" stroke-linecap="round" stroke-linejoin="round"/>
<path d="M33.8779 29.2282C35.5849 27.5674 36.6451 25.245 36.6451 22.6744C36.6451 17.6245 32.5513 13.5295 27.5003 13.5295C22.4493 13.5295 18.3555 17.6245 18.3555 22.6744C18.3555 27.7253 22.4493 31.8192 27.5003 31.8192C28.6261 31.8192 29.7035 31.6162 30.6993 31.2434" stroke="#EA5584" stroke-width="1.5" stroke-miterlimit="10" stroke-linecap="round" stroke-linejoin="round"/>
<path d="M22.4712 10.411C24.0224 9.7751 25.7196 9.42383 27.4996 9.42383C34.8183 9.42383 40.7512 15.3567 40.7512 22.6743C40.7512 29.993 34.8183 35.9259 27.4996 35.9259C20.181 35.9259 14.248 29.993 14.248 22.6743C14.248 18.4838 16.1935 14.7477 19.2313 12.3188" stroke="#EA5584" stroke-width="1.5" stroke-miterlimit="10" stroke-linecap="round" stroke-linejoin="round"/>
<path d="M27.5 13.2279V9.6521" stroke="#EA5584" stroke-width="1.5" stroke-miterlimit="10" stroke-linecap="round" stroke-linejoin="round"/>
<path d="M19.3184 17.9515L16.2217 16.1636" stroke="#EA5584" stroke-width="1.5" stroke-miterlimit="10" stroke-linecap="round" stroke-linejoin="round"/>
<path d="M19.3184 27.3982L16.2217 29.1861" stroke="#EA5584" stroke-width="1.5" stroke-miterlimit="10" stroke-linecap="round" stroke-linejoin="round"/>
<path d="M27.5 32.1216V35.6973" stroke="#EA5584" stroke-width="1.5" stroke-miterlimit="10" stroke-linecap="round" stroke-linejoin="round"/>
<path d="M35.6807 27.3982L38.7774 29.1861" stroke="#EA5584" stroke-width="1.5" stroke-miterlimit="10" stroke-linecap="round" stroke-linejoin="round"/>
<path d="M35.6807 17.9515L38.7774 16.1636" stroke="#EA5584" stroke-width="1.5" stroke-miterlimit="10" stroke-linecap="round" stroke-linejoin="round"/>
<path d="M29.5426 6.72431L27.5 4.70316L29.5426 2.80566" stroke="#EA5584" stroke-width="1.5" stroke-miterlimit="10" stroke-linecap="round" stroke-linejoin="round"/>
<path d="M9.60059 22.0688C9.87043 13.9511 15.5426 7.20145 23.1368 5.30029" stroke="#EA5584" stroke-width="1.5" stroke-miterlimit="10" stroke-linecap="round" stroke-linejoin="round"/>
<path d="M11.5495 20.6321L9.52836 22.6747L7.63086 20.6321" stroke="#EA5584" stroke-width="1.5" stroke-miterlimit="10" stroke-linecap="round" stroke-linejoin="round"/>
<path d="M26.8936 40.5743C18.7758 40.3045 12.0262 34.6323 10.125 27.0381" stroke="#EA5584" stroke-width="1.5" stroke-miterlimit="10" stroke-linecap="round" stroke-linejoin="round"/>
<path d="M25.457 38.6252L27.4997 40.6465L25.457 42.544" stroke="#EA5584" stroke-width="1.5" stroke-miterlimit="10" stroke-linecap="round" stroke-linejoin="round"/>
<path d="M45.3995 23.2808C45.1297 31.3985 39.4575 38.1482 31.8633 40.0493" stroke="#EA5584" stroke-width="1.5" stroke-miterlimit="10" stroke-linecap="round" stroke-linejoin="round"/>
<path d="M43.4502 24.7174L45.4713 22.6748L47.3688 24.7174" stroke="#EA5584" stroke-width="1.5" stroke-miterlimit="10" stroke-linecap="round" stroke-linejoin="round"/>
</svg>
