<svg width="57" height="68" viewBox="0 0 57 68" fill="none" xmlns="http://www.w3.org/2000/svg">
<path d="M5.15984 36.9106V25.7025C5.15984 23.9458 3.74909 22.5217 2.0088 22.5217C1.36054 22.5217 0.834961 23.0523 0.834961 23.7067V38.9659C0.834961 39.7687 1.10738 40.5471 1.6068 41.1717L10.7123 52.7141C11.1388 53.2548 11.3712 53.9256 11.3712 54.6168V58.7879" stroke="white" stroke-miterlimit="10" stroke-linecap="round" stroke-linejoin="round"/>
<path d="M12.1298 45.4831L5.75626 38.4818C5.35771 38.0435 5.15955 37.4895 5.15955 36.9366C5.15955 36.9276 5.15955 36.9197 5.15955 36.9107C5.16623 36.3286 5.39222 35.7487 5.83308 35.3093C6.71591 34.4294 8.13535 34.4316 9.01707 35.3127L14.1871 40.4878" stroke="white" stroke-miterlimit="10" stroke-linecap="round" stroke-linejoin="round"/>
<path d="M16.9541 43.2581L18.0941 44.3987C19.4946 45.8001 20.2817 47.7072 20.2817 49.6963V58.7878" stroke="white" stroke-miterlimit="10" stroke-linecap="round" stroke-linejoin="round"/>
<path d="M45.6294 58.7878V54.6162C45.6294 53.9251 45.8621 53.2542 46.2885 52.7136L49.5359 48.5972" stroke="white" stroke-miterlimit="10" stroke-linecap="round" stroke-linejoin="round"/>
<path d="M51.8405 36.9108V25.7021C51.8405 23.9456 53.251 22.5217 54.9922 22.5217C55.3161 22.5217 55.6089 22.6543 55.8215 22.869C56.0342 23.0825 56.1656 23.3792 56.1656 23.7062V38.9651C56.1656 39.7687 55.8928 40.5463 55.394 41.1712L51.9663 45.5169" stroke="white" stroke-miterlimit="10" stroke-linecap="round" stroke-linejoin="round"/>
<path d="M36.719 58.7879V49.6968C36.719 47.7072 37.5063 45.8 38.9058 44.3991L47.9832 35.3133C48.8641 34.4315 50.2842 34.4299 51.1672 35.3097C52.0344 36.1739 52.0682 37.5762 51.2436 38.482L44.87 45.483" stroke="white" stroke-miterlimit="10" stroke-linecap="round" stroke-linejoin="round"/>
<path d="M29.1285 4.99536C37.5415 5.27766 44.5366 11.2117 46.5069 19.1563" stroke="white" stroke-miterlimit="10" stroke-linecap="round" stroke-linejoin="round"/>
<path d="M30.0441 20.333C29.9373 20.219 29.1223 19.4084 27.8516 19.7947C26.598 20.1759 26.2102 21.6978 27.0922 22.7236C27.5493 23.2553 28.3173 23.4292 29.3091 23.7831C31.529 24.5753 30.7084 27.7355 28.4503 27.7507C27.569 27.7566 27.1571 27.7001 26.3829 27.189" stroke="white" stroke-miterlimit="10" stroke-linecap="round" stroke-linejoin="round"/>
<path d="M28.5 27.8865V29.1955" stroke="white" stroke-miterlimit="10" stroke-linecap="round" stroke-linejoin="round"/>
<path d="M28.5 18.248V19.557" stroke="white" stroke-miterlimit="10" stroke-linecap="round" stroke-linejoin="round"/>
<path d="M35.1099 30.5772C36.8789 28.8398 37.9777 26.4102 37.9777 23.7209C37.9777 18.438 33.735 14.1541 28.5003 14.1541C23.2657 14.1541 19.0229 18.438 19.0229 23.7209C19.0229 29.005 23.2657 33.2878 28.5003 33.2878C29.667 33.2878 30.7837 33.0754 31.8157 32.6855" stroke="white" stroke-miterlimit="10" stroke-linecap="round" stroke-linejoin="round"/>
<path d="M23.2883 10.8917C24.8959 10.2264 26.6548 9.85889 28.4996 9.85889C36.0843 9.85889 42.233 16.0656 42.233 23.7209C42.233 31.3774 36.0843 37.5841 28.4996 37.5841C20.9148 37.5841 14.7661 31.3774 14.7661 23.7209C14.7661 19.337 16.7823 15.4284 19.9306 12.8875" stroke="white" stroke-miterlimit="10" stroke-linecap="round" stroke-linejoin="round"/>
<path d="M28.5 13.8384V10.0977" stroke="white" stroke-miterlimit="10" stroke-linecap="round" stroke-linejoin="round"/>
<path d="M20.0209 18.7799L16.8115 16.9094" stroke="white" stroke-miterlimit="10" stroke-linecap="round" stroke-linejoin="round"/>
<path d="M20.0209 28.6626L16.8115 30.533" stroke="white" stroke-miterlimit="10" stroke-linecap="round" stroke-linejoin="round"/>
<path d="M28.5 33.604V37.3448" stroke="white" stroke-miterlimit="10" stroke-linecap="round" stroke-linejoin="round"/>
<path d="M36.9781 28.6626L40.1875 30.533" stroke="white" stroke-miterlimit="10" stroke-linecap="round" stroke-linejoin="round"/>
<path d="M36.9781 18.7799L40.1875 16.9094" stroke="white" stroke-miterlimit="10" stroke-linecap="round" stroke-linejoin="round"/>
<path d="M30.6169 7.03456L28.5 4.92014L30.6169 2.93506" stroke="white" stroke-miterlimit="10" stroke-linecap="round" stroke-linejoin="round"/>
<path d="M9.94971 23.0874C10.2294 14.595 16.1078 7.53382 23.9782 5.54492" stroke="white" stroke-miterlimit="10" stroke-linecap="round" stroke-linejoin="round"/>
<path d="M11.9696 21.5842L9.87495 23.7211L7.90845 21.5842" stroke="white" stroke-miterlimit="10" stroke-linecap="round" stroke-linejoin="round"/>
<path d="M27.8715 42.4471C19.4585 42.1648 12.4634 36.2308 10.4932 28.2861" stroke="white" stroke-miterlimit="10" stroke-linecap="round" stroke-linejoin="round"/>
<path d="M26.3827 40.4077L28.4996 42.5223L26.3827 44.5073" stroke="white" stroke-miterlimit="10" stroke-linecap="round" stroke-linejoin="round"/>
<path d="M47.0506 24.355C46.7709 32.8474 40.8924 39.9086 33.0221 41.8975" stroke="white" stroke-miterlimit="10" stroke-linecap="round" stroke-linejoin="round"/>
<path d="M45.0304 25.8581L47.125 23.7212L49.0915 25.8581" stroke="white" stroke-miterlimit="10" stroke-linecap="round" stroke-linejoin="round"/>
</svg>
